M48
METRIC,LZ,000.000
;FILE_FORMAT=3:3
;TYPE=PLATED
;Layer: PTH_Through
;EasyEDA v6.5.54, 2026-03-30 19:15:34
;0ce92336750a43b293a0028fa06999eb,542a0a0b4d2e4e71ab8ac907374f1b5f,10
;Gerber Generator version 0.2
;Holesize 1 = 0.901 mm
T01C0.901
%
G05
G90
T01
X027305Y059817
X027305Y057277
X027305Y054737
X057912Y043307
X057912Y037973
X027432Y024638
X027432Y027178
X027432Y039878
X027432Y042418
X027432Y029718
X027432Y032258
X027432Y037338
X027432Y034798
X027432Y044958
X019812Y044958
X019812Y042418
X019812Y039878
X019812Y037338
X019812Y034798
X019812Y032258
X019812Y029718
X019812Y027178
X019812Y024638
X031405Y052578
X046645Y050038
X046645Y044957
X046645Y039877
X046645Y034797
X046645Y029717
X046645Y024637
X046645Y019557
X031405Y017018
X031405Y022099
X031405Y027179
X031405Y032259
X031405Y037339
X031405Y042419
X031405Y047498
X031405Y050038
X031405Y044958
X031405Y039878
X031405Y034798
X031405Y029718
X031405Y024638
X031405Y019558
X046645Y017018
X046645Y022098
X046645Y027178
X046645Y032258
X046645Y037338
X046645Y042418
X046645Y047498
X046645Y052578
X013081Y019511
X013081Y022011
X013081Y024511
X013081Y027011
X013081Y029511
X013081Y034878
X013081Y037378
X013081Y039878
X013081Y042378
X013081Y044878
X023889Y004445
X026389Y004445
X028889Y004445
X031389Y004445
X033889Y004445
X036389Y004445
X038889Y004445
X041389Y004445
X052959Y054610
X058039Y054610
M30
