G04 Layer: BottomLayer*
G04 EasyEDA v6.5.54, 2026-03-30 15:16:27*
G04 7c9e62fdbe6b4c8088fa6ed4ee03eb35,542a0a0b4d2e4e71ab8ac907374f1b5f,10*
G04 Gerber Generator version 0.2*
G04 Scale: 100 percent, Rotated: No, Reflected: No *
G04 Dimensions in millimeters *
G04 leading zeros omitted , absolute positions ,4 integer and 5 decimal *
%FSLAX45Y45*%
%MOMM*%

%ADD10C,1.0000*%
%ADD11C,1.8000*%
%ADD12C,0.7000*%
%ADD13C,1.6000*%
%ADD14C,0.0160*%

%LPD*%
G36*
X5225796Y4793742D02*
G01*
X5211622Y4793234D01*
X5198160Y4791710D01*
X5191760Y4790592D01*
X5185511Y4789220D01*
X5173573Y4785817D01*
X5167934Y4783785D01*
X5157266Y4779060D01*
X5152186Y4776368D01*
X5147411Y4773523D01*
X5142788Y4770424D01*
X5138420Y4767173D01*
X5134254Y4763719D01*
X5130342Y4760112D01*
X5126634Y4756302D01*
X5119928Y4748225D01*
X5116931Y4743958D01*
X5114188Y4739538D01*
X5111699Y4734915D01*
X5109464Y4730191D01*
X5105704Y4720336D01*
X5104231Y4715205D01*
X5103012Y4709972D01*
X5102047Y4704588D01*
X5101386Y4699101D01*
X5100980Y4693513D01*
X5100828Y4687824D01*
X5101132Y4680610D01*
X5101945Y4673701D01*
X5103266Y4667097D01*
X5104993Y4660798D01*
X5107178Y4654804D01*
X5109718Y4649114D01*
X5112562Y4643780D01*
X5115712Y4638751D01*
X5119065Y4634077D01*
X5122570Y4629708D01*
X5126278Y4625695D01*
X5130038Y4622038D01*
X5147818Y4637278D01*
X5142890Y4642205D01*
X5138420Y4647539D01*
X5134457Y4653229D01*
X5131104Y4659274D01*
X5128412Y4665726D01*
X5126380Y4672584D01*
X5125110Y4679899D01*
X5124704Y4687570D01*
X5124907Y4693412D01*
X5125516Y4699050D01*
X5126482Y4704486D01*
X5127853Y4709769D01*
X5129580Y4714849D01*
X5131663Y4719726D01*
X5134152Y4724400D01*
X5136946Y4728870D01*
X5140096Y4733086D01*
X5143652Y4737100D01*
X5147462Y4740859D01*
X5151678Y4744415D01*
X5156149Y4747666D01*
X5160975Y4750714D01*
X5166106Y4753508D01*
X5171541Y4755997D01*
X5177282Y4758283D01*
X5183327Y4760214D01*
X5189626Y4761890D01*
X5196230Y4763312D01*
X5203088Y4764379D01*
X5210251Y4765141D01*
X5217617Y4765649D01*
X5225288Y4765802D01*
X5232958Y4765649D01*
X5240375Y4765192D01*
X5247538Y4764430D01*
X5254396Y4763363D01*
X5261051Y4762042D01*
X5267401Y4760417D01*
X5273497Y4758537D01*
X5279288Y4756353D01*
X5284774Y4753914D01*
X5289956Y4751171D01*
X5294833Y4748225D01*
X5299405Y4745024D01*
X5303672Y4741519D01*
X5307584Y4737811D01*
X5311140Y4733899D01*
X5314391Y4729734D01*
X5317236Y4725314D01*
X5319776Y4720691D01*
X5321909Y4715865D01*
X5323687Y4710785D01*
X5325059Y4705553D01*
X5326075Y4700066D01*
X5326684Y4694428D01*
X5326888Y4688586D01*
X5326684Y4682794D01*
X5326075Y4677257D01*
X5325059Y4671923D01*
X5323636Y4666792D01*
X5321858Y4661814D01*
X5319725Y4657039D01*
X5317185Y4652467D01*
X5314289Y4647996D01*
X5311038Y4643678D01*
X5307431Y4639513D01*
X5303469Y4635398D01*
X5299202Y4631436D01*
X5316220Y4616196D01*
X5321604Y4620971D01*
X5326583Y4626000D01*
X5331104Y4631182D01*
X5335168Y4636668D01*
X5338826Y4642307D01*
X5342026Y4648250D01*
X5344718Y4654448D01*
X5346954Y4660950D01*
X5348732Y4667707D01*
X5350002Y4674768D01*
X5350764Y4682134D01*
X5351018Y4689856D01*
X5350865Y4695393D01*
X5350459Y4700879D01*
X5349798Y4706213D01*
X5348833Y4711446D01*
X5347614Y4716576D01*
X5346141Y4721606D01*
X5344414Y4726482D01*
X5342432Y4731258D01*
X5340197Y4735880D01*
X5335016Y4744770D01*
X5328818Y4753000D01*
X5325364Y4756912D01*
X5317744Y4764176D01*
X5313578Y4767580D01*
X5309209Y4770780D01*
X5304637Y4773777D01*
X5299811Y4776622D01*
X5294782Y4779264D01*
X5284063Y4783886D01*
X5278374Y4785918D01*
X5266385Y4789271D01*
X5253634Y4791710D01*
X5246979Y4792624D01*
X5240070Y4793234D01*
G37*
G36*
X5104892Y4576318D02*
G01*
X5104892Y4548886D01*
X5248910Y4548886D01*
X5257546Y4548682D01*
X5265521Y4548124D01*
X5272989Y4547209D01*
X5279847Y4545888D01*
X5286146Y4544314D01*
X5291988Y4542383D01*
X5297271Y4540148D01*
X5302046Y4537608D01*
X5306364Y4534865D01*
X5310174Y4531817D01*
X5313578Y4528515D01*
X5316575Y4525010D01*
X5319115Y4521301D01*
X5321300Y4517390D01*
X5323078Y4513326D01*
X5324500Y4509058D01*
X5325567Y4504639D01*
X5326329Y4500118D01*
X5326735Y4495495D01*
X5326888Y4490720D01*
X5326735Y4485843D01*
X5326329Y4481118D01*
X5325567Y4476445D01*
X5324500Y4471974D01*
X5323078Y4467606D01*
X5321300Y4463440D01*
X5319115Y4459427D01*
X5316575Y4455668D01*
X5313578Y4452061D01*
X5310174Y4448708D01*
X5306364Y4445609D01*
X5302046Y4442764D01*
X5297271Y4440224D01*
X5291988Y4437938D01*
X5286146Y4435957D01*
X5279847Y4434332D01*
X5272989Y4433011D01*
X5265521Y4432046D01*
X5257546Y4431487D01*
X5248910Y4431284D01*
X5104892Y4431284D01*
X5104892Y4405122D01*
X5248656Y4405122D01*
X5256682Y4405274D01*
X5264353Y4405680D01*
X5271668Y4406392D01*
X5278577Y4407357D01*
X5285079Y4408627D01*
X5291277Y4410100D01*
X5297119Y4411827D01*
X5302605Y4413758D01*
X5307736Y4415993D01*
X5312562Y4418380D01*
X5317083Y4421022D01*
X5321249Y4423867D01*
X5325110Y4426864D01*
X5328716Y4430115D01*
X5331968Y4433519D01*
X5334965Y4437075D01*
X5337657Y4440834D01*
X5340096Y4444746D01*
X5342280Y4448759D01*
X5344210Y4452975D01*
X5347258Y4461764D01*
X5349392Y4471009D01*
X5350611Y4480712D01*
X5351018Y4490720D01*
X5350611Y4500727D01*
X5349392Y4510430D01*
X5347258Y4519676D01*
X5344210Y4528464D01*
X5342280Y4532680D01*
X5340096Y4536694D01*
X5337657Y4540605D01*
X5334965Y4544364D01*
X5331968Y4547920D01*
X5328716Y4551324D01*
X5325110Y4554575D01*
X5321249Y4557572D01*
X5317083Y4560417D01*
X5312562Y4563059D01*
X5307736Y4565446D01*
X5302605Y4567682D01*
X5297119Y4569612D01*
X5291277Y4571339D01*
X5285079Y4572812D01*
X5278577Y4574082D01*
X5271668Y4575048D01*
X5264353Y4575759D01*
X5256682Y4576165D01*
X5248656Y4576318D01*
G37*
G36*
X5104892Y4338828D02*
G01*
X5104892Y4311396D01*
X5324856Y4311396D01*
X5324856Y4267708D01*
X5324652Y4259884D01*
X5324144Y4252417D01*
X5323179Y4245406D01*
X5321909Y4238853D01*
X5320233Y4232706D01*
X5318150Y4227068D01*
X5315661Y4221886D01*
X5312816Y4217212D01*
X5309565Y4212996D01*
X5305907Y4209338D01*
X5301792Y4206189D01*
X5297322Y4203598D01*
X5292394Y4201566D01*
X5287060Y4200093D01*
X5281269Y4199178D01*
X5275072Y4198874D01*
X5269433Y4199178D01*
X5264251Y4200042D01*
X5259374Y4201464D01*
X5254955Y4203446D01*
X5250840Y4205986D01*
X5247132Y4209084D01*
X5243830Y4212691D01*
X5240832Y4216806D01*
X5238242Y4221480D01*
X5236006Y4226610D01*
X5234127Y4232249D01*
X5232552Y4238396D01*
X5231384Y4245051D01*
X5230520Y4252112D01*
X5230012Y4259681D01*
X5229860Y4267708D01*
X5229860Y4311396D01*
X5208778Y4311396D01*
X5208778Y4274312D01*
X5208574Y4266488D01*
X5208016Y4259224D01*
X5207152Y4252569D01*
X5205882Y4246473D01*
X5204307Y4240936D01*
X5202377Y4235958D01*
X5200142Y4231487D01*
X5197602Y4227525D01*
X5194757Y4224121D01*
X5191658Y4221175D01*
X5188254Y4218736D01*
X5184546Y4216755D01*
X5180634Y4215231D01*
X5176469Y4214164D01*
X5172049Y4213555D01*
X5167376Y4213352D01*
X5162042Y4213606D01*
X5157114Y4214266D01*
X5152593Y4215485D01*
X5148478Y4217111D01*
X5144770Y4219194D01*
X5141468Y4221784D01*
X5138521Y4224832D01*
X5135930Y4228287D01*
X5133644Y4232249D01*
X5131765Y4236669D01*
X5130190Y4241546D01*
X5128920Y4246880D01*
X5127955Y4252671D01*
X5127244Y4258919D01*
X5126736Y4272788D01*
X5126736Y4311396D01*
X5104892Y4311396D01*
X5104892Y4268724D01*
X5105400Y4254500D01*
X5106060Y4247794D01*
X5107025Y4241292D01*
X5108244Y4235145D01*
X5109768Y4229252D01*
X5111546Y4223715D01*
X5113629Y4218482D01*
X5116068Y4213606D01*
X5118760Y4209084D01*
X5121808Y4204919D01*
X5125161Y4201109D01*
X5128818Y4197705D01*
X5132832Y4194759D01*
X5137150Y4192168D01*
X5141823Y4190034D01*
X5146852Y4188358D01*
X5152237Y4187139D01*
X5157978Y4186428D01*
X5164074Y4186174D01*
X5170017Y4186428D01*
X5175808Y4187240D01*
X5181396Y4188561D01*
X5186730Y4190390D01*
X5191810Y4192727D01*
X5196535Y4195521D01*
X5200954Y4198823D01*
X5205018Y4202633D01*
X5208625Y4206849D01*
X5211775Y4211523D01*
X5214467Y4216654D01*
X5216652Y4222242D01*
X5217922Y4222242D01*
X5219141Y4216755D01*
X5220665Y4211574D01*
X5222544Y4206544D01*
X5224729Y4201871D01*
X5227218Y4197400D01*
X5230063Y4193286D01*
X5233212Y4189425D01*
X5236718Y4185970D01*
X5240528Y4182821D01*
X5244642Y4180027D01*
X5249113Y4177639D01*
X5253837Y4175607D01*
X5258917Y4174032D01*
X5264353Y4172915D01*
X5270042Y4172204D01*
X5276088Y4171950D01*
X5281879Y4172153D01*
X5287416Y4172712D01*
X5292699Y4173677D01*
X5297728Y4174947D01*
X5302504Y4176623D01*
X5307076Y4178604D01*
X5311343Y4180992D01*
X5315407Y4183634D01*
X5319166Y4186631D01*
X5322722Y4189933D01*
X5326075Y4193489D01*
X5329123Y4197400D01*
X5331917Y4201566D01*
X5334508Y4205986D01*
X5336794Y4210659D01*
X5338876Y4215638D01*
X5340705Y4220819D01*
X5342331Y4226255D01*
X5344769Y4237837D01*
X5346192Y4250232D01*
X5346598Y4256735D01*
X5346700Y4338828D01*
G37*
G36*
X5224780Y4137660D02*
G01*
X5217668Y4137558D01*
X5203952Y4136593D01*
X5190947Y4134662D01*
X5184749Y4133392D01*
X5172964Y4130141D01*
X5167325Y4128211D01*
X5161940Y4126077D01*
X5151729Y4121150D01*
X5146954Y4118457D01*
X5142382Y4115511D01*
X5138064Y4112412D01*
X5130038Y4105656D01*
X5126380Y4101998D01*
X5122976Y4098239D01*
X5116779Y4090162D01*
X5111597Y4081475D01*
X5109362Y4076903D01*
X5107381Y4072178D01*
X5105654Y4067352D01*
X5104180Y4062425D01*
X5102047Y4052112D01*
X5101386Y4046778D01*
X5100980Y4041343D01*
X5100828Y4035806D01*
X5124704Y4035806D01*
X5124907Y4041292D01*
X5125516Y4046575D01*
X5126482Y4051757D01*
X5127853Y4056735D01*
X5129580Y4061510D01*
X5131663Y4066082D01*
X5134102Y4070502D01*
X5136946Y4074718D01*
X5140096Y4078732D01*
X5143601Y4082491D01*
X5147411Y4086098D01*
X5151577Y4089450D01*
X5156098Y4092549D01*
X5160873Y4095445D01*
X5166004Y4098036D01*
X5171389Y4100423D01*
X5177129Y4102557D01*
X5183124Y4104436D01*
X5189372Y4106011D01*
X5195925Y4107332D01*
X5202783Y4108348D01*
X5209844Y4109110D01*
X5217210Y4109567D01*
X5224780Y4109720D01*
X5232450Y4109567D01*
X5239867Y4109110D01*
X5247030Y4108348D01*
X5253939Y4107332D01*
X5260594Y4106011D01*
X5266994Y4104436D01*
X5273090Y4102557D01*
X5278932Y4100423D01*
X5284419Y4098036D01*
X5289651Y4095445D01*
X5294579Y4092549D01*
X5299151Y4089450D01*
X5303469Y4086098D01*
X5307380Y4082491D01*
X5310987Y4078732D01*
X5314238Y4074718D01*
X5317134Y4070502D01*
X5319674Y4066082D01*
X5321858Y4061510D01*
X5323636Y4056735D01*
X5325059Y4051757D01*
X5326075Y4046575D01*
X5326684Y4041292D01*
X5326888Y4035806D01*
X5326684Y4030268D01*
X5326075Y4024884D01*
X5325059Y4019702D01*
X5323636Y4014673D01*
X5321858Y4009847D01*
X5319674Y4005224D01*
X5317134Y4000754D01*
X5314238Y3996537D01*
X5310987Y3992524D01*
X5307380Y3988663D01*
X5303469Y3985107D01*
X5299151Y3981754D01*
X5294579Y3978605D01*
X5289651Y3975709D01*
X5284419Y3973068D01*
X5278932Y3970680D01*
X5273090Y3968546D01*
X5266994Y3966667D01*
X5260594Y3965092D01*
X5253939Y3963771D01*
X5247030Y3962755D01*
X5239867Y3961993D01*
X5232450Y3961536D01*
X5224780Y3961384D01*
X5217210Y3961536D01*
X5209844Y3961993D01*
X5202783Y3962755D01*
X5195925Y3963771D01*
X5189372Y3965092D01*
X5183124Y3966667D01*
X5177129Y3968546D01*
X5171389Y3970680D01*
X5166004Y3973068D01*
X5160873Y3975709D01*
X5156098Y3978605D01*
X5151577Y3981754D01*
X5147411Y3985107D01*
X5143601Y3988663D01*
X5140096Y3992524D01*
X5136946Y3996537D01*
X5134102Y4000754D01*
X5131663Y4005224D01*
X5129580Y4009847D01*
X5127853Y4014673D01*
X5126482Y4019702D01*
X5125516Y4024884D01*
X5124907Y4030268D01*
X5124704Y4035806D01*
X5100828Y4035806D01*
X5100980Y4030218D01*
X5101386Y4024731D01*
X5102047Y4019346D01*
X5104180Y4008983D01*
X5105654Y4004005D01*
X5107381Y3999128D01*
X5109362Y3994353D01*
X5111597Y3989781D01*
X5114086Y3985310D01*
X5116779Y3981043D01*
X5119776Y3976878D01*
X5126380Y3969054D01*
X5130038Y3965397D01*
X5138064Y3958590D01*
X5142382Y3955491D01*
X5146954Y3952544D01*
X5156708Y3947210D01*
X5167325Y3942689D01*
X5178755Y3939032D01*
X5190947Y3936187D01*
X5197348Y3935120D01*
X5210708Y3933698D01*
X5217668Y3933291D01*
X5231942Y3933291D01*
X5245760Y3934307D01*
X5252364Y3935120D01*
X5258816Y3936187D01*
X5271211Y3939032D01*
X5277104Y3940759D01*
X5282793Y3942689D01*
X5293563Y3947210D01*
X5303520Y3952544D01*
X5308193Y3955491D01*
X5312613Y3958590D01*
X5320842Y3965397D01*
X5324602Y3969054D01*
X5328158Y3972915D01*
X5331460Y3976878D01*
X5334508Y3981043D01*
X5337302Y3985310D01*
X5339842Y3989781D01*
X5342128Y3994353D01*
X5344210Y3999128D01*
X5345988Y4004005D01*
X5347512Y4008983D01*
X5348782Y4014114D01*
X5349748Y4019346D01*
X5350459Y4024731D01*
X5350865Y4030218D01*
X5351018Y4035806D01*
X5350865Y4041343D01*
X5350459Y4046778D01*
X5349748Y4052112D01*
X5348782Y4057345D01*
X5347512Y4062425D01*
X5345988Y4067352D01*
X5344210Y4072178D01*
X5339842Y4081475D01*
X5337302Y4085894D01*
X5334508Y4090162D01*
X5331460Y4094276D01*
X5328158Y4098239D01*
X5320842Y4105656D01*
X5312613Y4112412D01*
X5308193Y4115511D01*
X5303520Y4118457D01*
X5293563Y4123690D01*
X5288280Y4126077D01*
X5282793Y4128211D01*
X5277104Y4130141D01*
X5265115Y4133392D01*
X5252364Y4135729D01*
X5245760Y4136593D01*
X5231942Y4137558D01*
G37*
G36*
X5104892Y3829558D02*
G01*
X5104892Y3654298D01*
X5128006Y3654298D01*
X5128006Y3728212D01*
X5346700Y3728212D01*
X5346700Y3755898D01*
X5128006Y3755898D01*
X5128006Y3829558D01*
G37*
G36*
X5104892Y3610356D02*
G01*
X5104892Y3472687D01*
X5128006Y3472687D01*
X5128006Y3582924D01*
X5207762Y3582924D01*
X5207762Y3490214D01*
X5230876Y3490214D01*
X5230876Y3582924D01*
X5323586Y3582924D01*
X5323586Y3469132D01*
X5346700Y3469132D01*
X5346700Y3610356D01*
G37*
G36*
X5225796Y3431794D02*
G01*
X5211622Y3431286D01*
X5198160Y3429762D01*
X5185511Y3427222D01*
X5179466Y3425647D01*
X5173573Y3423818D01*
X5167934Y3421786D01*
X5162499Y3419500D01*
X5152186Y3414369D01*
X5142788Y3408426D01*
X5134254Y3401720D01*
X5126634Y3394252D01*
X5119928Y3386175D01*
X5116931Y3381908D01*
X5114188Y3377437D01*
X5111699Y3372865D01*
X5109464Y3368141D01*
X5105704Y3358286D01*
X5104231Y3353155D01*
X5103012Y3347923D01*
X5102047Y3342589D01*
X5101386Y3337102D01*
X5100980Y3331565D01*
X5100828Y3325876D01*
X5101132Y3318662D01*
X5101945Y3311702D01*
X5103266Y3305098D01*
X5104993Y3298748D01*
X5107178Y3292754D01*
X5109718Y3287064D01*
X5112562Y3281730D01*
X5115712Y3276701D01*
X5119065Y3272028D01*
X5122570Y3267659D01*
X5126278Y3263696D01*
X5130038Y3260090D01*
X5147818Y3275329D01*
X5142890Y3280206D01*
X5138420Y3285439D01*
X5134457Y3291078D01*
X5131104Y3297123D01*
X5128412Y3303574D01*
X5126380Y3310382D01*
X5125110Y3317697D01*
X5124704Y3325368D01*
X5124907Y3331210D01*
X5125516Y3336848D01*
X5126482Y3342284D01*
X5127853Y3347567D01*
X5129580Y3352647D01*
X5131663Y3357524D01*
X5134152Y3362198D01*
X5136946Y3366668D01*
X5140096Y3370884D01*
X5143652Y3374898D01*
X5147462Y3378657D01*
X5151678Y3382213D01*
X5156149Y3385464D01*
X5160975Y3388512D01*
X5166106Y3391306D01*
X5171541Y3393795D01*
X5177282Y3396081D01*
X5183327Y3398012D01*
X5189626Y3399688D01*
X5196230Y3401110D01*
X5203088Y3402177D01*
X5210251Y3402939D01*
X5217617Y3403447D01*
X5225288Y3403600D01*
X5232958Y3403447D01*
X5240375Y3402990D01*
X5247538Y3402228D01*
X5254396Y3401161D01*
X5261051Y3399840D01*
X5267401Y3398215D01*
X5273497Y3396335D01*
X5279288Y3394151D01*
X5284774Y3391712D01*
X5289956Y3388969D01*
X5294833Y3386023D01*
X5299405Y3382822D01*
X5303672Y3379317D01*
X5307584Y3375609D01*
X5311140Y3371697D01*
X5314391Y3367532D01*
X5317236Y3363112D01*
X5319776Y3358489D01*
X5321909Y3353663D01*
X5323687Y3348583D01*
X5325059Y3343351D01*
X5326075Y3337864D01*
X5326684Y3332226D01*
X5326888Y3326384D01*
X5326684Y3320643D01*
X5326075Y3315157D01*
X5325059Y3309823D01*
X5323636Y3304743D01*
X5321858Y3299815D01*
X5319725Y3295040D01*
X5317185Y3290417D01*
X5314289Y3285947D01*
X5311038Y3281629D01*
X5307431Y3277412D01*
X5299202Y3269234D01*
X5316220Y3253994D01*
X5321604Y3258820D01*
X5326583Y3263798D01*
X5331104Y3269030D01*
X5335168Y3274517D01*
X5338826Y3280206D01*
X5342026Y3286150D01*
X5344718Y3292348D01*
X5346954Y3298850D01*
X5348732Y3305606D01*
X5350002Y3312668D01*
X5350764Y3319983D01*
X5351018Y3327654D01*
X5350865Y3333242D01*
X5350459Y3338677D01*
X5349798Y3344062D01*
X5348833Y3349345D01*
X5347614Y3354476D01*
X5346141Y3359505D01*
X5344414Y3364433D01*
X5342432Y3369208D01*
X5340197Y3373882D01*
X5335016Y3382721D01*
X5328818Y3391001D01*
X5325364Y3394913D01*
X5317744Y3402228D01*
X5309209Y3408781D01*
X5304637Y3411829D01*
X5294782Y3417265D01*
X5284063Y3421938D01*
X5278374Y3423970D01*
X5266385Y3427323D01*
X5253634Y3429762D01*
X5246979Y3430676D01*
X5240070Y3431286D01*
G37*
G36*
X5104892Y3208274D02*
G01*
X5104892Y3180842D01*
X5207254Y3180842D01*
X5207254Y3064256D01*
X5104892Y3064256D01*
X5104892Y3036824D01*
X5346700Y3036824D01*
X5346700Y3064256D01*
X5231130Y3064256D01*
X5231130Y3180842D01*
X5346700Y3180842D01*
X5346700Y3208274D01*
G37*
G36*
X2614930Y1249172D02*
G01*
X2607716Y1248867D01*
X2600807Y1248054D01*
X2594203Y1246733D01*
X2587904Y1245006D01*
X2581910Y1242822D01*
X2576220Y1240282D01*
X2570886Y1237437D01*
X2565857Y1234287D01*
X2561183Y1230934D01*
X2556814Y1227429D01*
X2552801Y1223721D01*
X2549144Y1219962D01*
X2564384Y1202182D01*
X2569260Y1207109D01*
X2574493Y1211580D01*
X2580132Y1215542D01*
X2586177Y1218895D01*
X2592628Y1221587D01*
X2599436Y1223619D01*
X2606751Y1224889D01*
X2614422Y1225296D01*
X2620264Y1225092D01*
X2625902Y1224483D01*
X2631338Y1223518D01*
X2636621Y1222146D01*
X2641752Y1220419D01*
X2646629Y1218336D01*
X2651302Y1215847D01*
X2655773Y1213053D01*
X2660040Y1209903D01*
X2664053Y1206347D01*
X2667812Y1202537D01*
X2671368Y1198321D01*
X2674670Y1193850D01*
X2677718Y1189024D01*
X2680512Y1183894D01*
X2683052Y1178458D01*
X2685288Y1172718D01*
X2687269Y1166672D01*
X2688996Y1160373D01*
X2690368Y1153769D01*
X2691485Y1146911D01*
X2692247Y1139748D01*
X2692755Y1132382D01*
X2692908Y1124712D01*
X2692755Y1117041D01*
X2692298Y1109624D01*
X2691536Y1102461D01*
X2690469Y1095603D01*
X2689148Y1088948D01*
X2687523Y1082598D01*
X2685592Y1076502D01*
X2683459Y1070711D01*
X2680970Y1065225D01*
X2678277Y1060043D01*
X2675280Y1055166D01*
X2672080Y1050594D01*
X2668625Y1046327D01*
X2664866Y1042416D01*
X2660954Y1038860D01*
X2656738Y1035608D01*
X2652318Y1032764D01*
X2647696Y1030224D01*
X2642819Y1028090D01*
X2637739Y1026312D01*
X2632456Y1024940D01*
X2626969Y1023924D01*
X2621330Y1023315D01*
X2615438Y1023112D01*
X2609697Y1023315D01*
X2604211Y1023924D01*
X2598928Y1024940D01*
X2593797Y1026363D01*
X2588869Y1028141D01*
X2584145Y1030274D01*
X2579522Y1032814D01*
X2575102Y1035710D01*
X2570784Y1038961D01*
X2566619Y1042568D01*
X2562504Y1046530D01*
X2558542Y1050798D01*
X2543302Y1033780D01*
X2548077Y1028395D01*
X2553106Y1023416D01*
X2558288Y1018895D01*
X2563774Y1014831D01*
X2569413Y1011174D01*
X2575356Y1007973D01*
X2581554Y1005281D01*
X2588056Y1003046D01*
X2594813Y1001268D01*
X2601874Y999998D01*
X2609240Y999236D01*
X2616962Y998982D01*
X2622499Y999134D01*
X2627985Y999540D01*
X2633319Y1000201D01*
X2638552Y1001166D01*
X2643682Y1002385D01*
X2648712Y1003858D01*
X2653588Y1005586D01*
X2658364Y1007567D01*
X2662986Y1009802D01*
X2671876Y1014984D01*
X2680106Y1021181D01*
X2684018Y1024636D01*
X2691282Y1032256D01*
X2694686Y1036421D01*
X2697886Y1040790D01*
X2700883Y1045362D01*
X2703728Y1050188D01*
X2706370Y1055217D01*
X2710992Y1065936D01*
X2713024Y1071626D01*
X2716377Y1083614D01*
X2718816Y1096365D01*
X2719730Y1103020D01*
X2720340Y1109929D01*
X2720848Y1124204D01*
X2720340Y1138377D01*
X2718816Y1151839D01*
X2716276Y1164488D01*
X2714701Y1170533D01*
X2712872Y1176426D01*
X2710840Y1182065D01*
X2708554Y1187500D01*
X2703423Y1197813D01*
X2697480Y1207211D01*
X2690774Y1215745D01*
X2683306Y1223365D01*
X2675229Y1230071D01*
X2670962Y1233068D01*
X2666492Y1235811D01*
X2661920Y1238300D01*
X2657195Y1240536D01*
X2647340Y1244295D01*
X2642209Y1245768D01*
X2636977Y1246987D01*
X2631643Y1247952D01*
X2626156Y1248613D01*
X2620619Y1249019D01*
G37*
G36*
X1711706Y1249172D02*
G01*
X1706118Y1249019D01*
X1700682Y1248613D01*
X1695348Y1247952D01*
X1684985Y1245819D01*
X1680006Y1244346D01*
X1675130Y1242618D01*
X1670405Y1240637D01*
X1665833Y1238402D01*
X1657096Y1233220D01*
X1649018Y1227023D01*
X1645157Y1223619D01*
X1638046Y1216050D01*
X1631594Y1207617D01*
X1625904Y1198270D01*
X1623364Y1193292D01*
X1618843Y1182674D01*
X1615186Y1171244D01*
X1612341Y1159052D01*
X1611274Y1152652D01*
X1609852Y1139291D01*
X1609445Y1132332D01*
X1609344Y1125220D01*
X1637538Y1125220D01*
X1637690Y1132789D01*
X1638147Y1140155D01*
X1638858Y1147216D01*
X1641195Y1160627D01*
X1642821Y1166876D01*
X1644650Y1172870D01*
X1646783Y1178610D01*
X1649171Y1183995D01*
X1651762Y1189126D01*
X1654657Y1193901D01*
X1657756Y1198422D01*
X1661109Y1202588D01*
X1664665Y1206398D01*
X1668475Y1209903D01*
X1672488Y1213053D01*
X1676704Y1215898D01*
X1681175Y1218336D01*
X1685798Y1220419D01*
X1690624Y1222146D01*
X1695602Y1223518D01*
X1700784Y1224483D01*
X1706168Y1225092D01*
X1711706Y1225296D01*
X1717192Y1225092D01*
X1722526Y1224483D01*
X1727707Y1223518D01*
X1732686Y1222146D01*
X1737512Y1220419D01*
X1742135Y1218336D01*
X1746504Y1215898D01*
X1750720Y1213053D01*
X1754733Y1209903D01*
X1758543Y1206398D01*
X1762099Y1202588D01*
X1765452Y1198422D01*
X1768551Y1193901D01*
X1771396Y1189126D01*
X1774037Y1183995D01*
X1776374Y1178610D01*
X1778507Y1172870D01*
X1780336Y1166876D01*
X1781962Y1160627D01*
X1784299Y1147216D01*
X1785010Y1140155D01*
X1785467Y1132789D01*
X1785620Y1125220D01*
X1785467Y1117549D01*
X1785010Y1110132D01*
X1784299Y1102969D01*
X1781962Y1089406D01*
X1780336Y1083005D01*
X1778507Y1076909D01*
X1776374Y1071067D01*
X1774037Y1065580D01*
X1771396Y1060348D01*
X1768551Y1055420D01*
X1765452Y1050848D01*
X1762099Y1046530D01*
X1758543Y1042619D01*
X1754733Y1039012D01*
X1750720Y1035761D01*
X1746504Y1032865D01*
X1742135Y1030325D01*
X1737512Y1028141D01*
X1732686Y1026363D01*
X1727707Y1024940D01*
X1722526Y1023924D01*
X1717192Y1023315D01*
X1711706Y1023112D01*
X1706168Y1023315D01*
X1700784Y1023924D01*
X1695602Y1024940D01*
X1690624Y1026363D01*
X1685798Y1028141D01*
X1681175Y1030325D01*
X1676704Y1032865D01*
X1672488Y1035761D01*
X1668475Y1039012D01*
X1664665Y1042619D01*
X1661109Y1046530D01*
X1657756Y1050848D01*
X1654657Y1055420D01*
X1651762Y1060348D01*
X1649171Y1065580D01*
X1646783Y1071067D01*
X1644650Y1076909D01*
X1642821Y1083005D01*
X1641195Y1089406D01*
X1638858Y1102969D01*
X1638147Y1110132D01*
X1637690Y1117549D01*
X1637538Y1125220D01*
X1609344Y1125220D01*
X1609445Y1118057D01*
X1610461Y1104239D01*
X1611274Y1097635D01*
X1612341Y1091184D01*
X1615186Y1078788D01*
X1616913Y1072896D01*
X1618843Y1067206D01*
X1623364Y1056436D01*
X1625904Y1051356D01*
X1631594Y1041806D01*
X1638046Y1033119D01*
X1645157Y1025398D01*
X1649018Y1021842D01*
X1652981Y1018540D01*
X1657096Y1015492D01*
X1661414Y1012698D01*
X1665833Y1010158D01*
X1675130Y1005789D01*
X1680006Y1004011D01*
X1684985Y1002487D01*
X1690116Y1001217D01*
X1695348Y1000252D01*
X1700682Y999540D01*
X1706118Y999134D01*
X1711706Y998982D01*
X1717293Y999134D01*
X1722729Y999540D01*
X1728063Y1000252D01*
X1733296Y1001217D01*
X1738426Y1002487D01*
X1743405Y1004011D01*
X1748231Y1005789D01*
X1757527Y1010158D01*
X1761947Y1012698D01*
X1766214Y1015492D01*
X1770380Y1018540D01*
X1774342Y1021842D01*
X1778152Y1025398D01*
X1781759Y1029157D01*
X1788515Y1037386D01*
X1791665Y1041806D01*
X1797304Y1051356D01*
X1799843Y1056436D01*
X1804365Y1067206D01*
X1806295Y1072896D01*
X1809546Y1084884D01*
X1811883Y1097635D01*
X1812747Y1104239D01*
X1813712Y1118057D01*
X1813712Y1132332D01*
X1812747Y1146048D01*
X1810816Y1159052D01*
X1809546Y1165250D01*
X1806295Y1177036D01*
X1804365Y1182674D01*
X1799843Y1193292D01*
X1797304Y1198270D01*
X1791665Y1207617D01*
X1785213Y1216050D01*
X1781759Y1219962D01*
X1778152Y1223619D01*
X1770380Y1230223D01*
X1766214Y1233220D01*
X1757527Y1238402D01*
X1752955Y1240637D01*
X1748231Y1242618D01*
X1743405Y1244346D01*
X1738426Y1245819D01*
X1728063Y1247952D01*
X1722729Y1248613D01*
X1717293Y1249019D01*
G37*
G36*
X3090672Y1245108D02*
G01*
X3090672Y1221994D01*
X3164586Y1221994D01*
X3164586Y1003300D01*
X3192526Y1003300D01*
X3192526Y1221994D01*
X3265932Y1221994D01*
X3265932Y1245108D01*
G37*
G36*
X2835402Y1245108D02*
G01*
X2835402Y1221994D01*
X2945638Y1221994D01*
X2945638Y1142238D01*
X2852928Y1142238D01*
X2852928Y1119124D01*
X2945638Y1119124D01*
X2945638Y1026414D01*
X2831846Y1026414D01*
X2831846Y1003300D01*
X2973070Y1003300D01*
X2973070Y1245108D01*
G37*
G36*
X2252218Y1245108D02*
G01*
X2252218Y1003300D01*
X2279650Y1003300D01*
X2279650Y1118870D01*
X2396236Y1118870D01*
X2396236Y1003300D01*
X2423668Y1003300D01*
X2423668Y1245108D01*
X2396236Y1245108D01*
X2396236Y1142746D01*
X2279650Y1142746D01*
X2279650Y1245108D01*
G37*
G36*
X1940306Y1245108D02*
G01*
X1940306Y1003300D01*
X1967738Y1003300D01*
X1967738Y1118870D01*
X2084324Y1118870D01*
X2084324Y1003300D01*
X2111756Y1003300D01*
X2111756Y1245108D01*
X2084324Y1245108D01*
X2084324Y1142746D01*
X1967738Y1142746D01*
X1967738Y1245108D01*
G37*
G36*
X1284478Y1245108D02*
G01*
X1284478Y1003300D01*
X1309878Y1003300D01*
X1309827Y1148283D01*
X1308709Y1177747D01*
X1306576Y1213104D01*
X1307846Y1213104D01*
X1327150Y1158240D01*
X1374394Y1028192D01*
X1393190Y1028192D01*
X1440688Y1158240D01*
X1459738Y1213104D01*
X1461262Y1213104D01*
X1459738Y1190040D01*
X1458264Y1159611D01*
X1458010Y1148283D01*
X1457960Y1003300D01*
X1482598Y1003300D01*
X1482598Y1245108D01*
X1448816Y1245108D01*
X1399133Y1106576D01*
X1390497Y1080719D01*
X1383792Y1061466D01*
X1382268Y1061466D01*
X1377848Y1074267D01*
X1365504Y1113028D01*
X1318260Y1245108D01*
G37*
G36*
X1005840Y1245108D02*
G01*
X1005840Y1221994D01*
X1116076Y1221994D01*
X1116076Y1142238D01*
X1023366Y1142238D01*
X1023366Y1119124D01*
X1116076Y1119124D01*
X1116076Y1026414D01*
X1002284Y1026414D01*
X1002284Y1003300D01*
X1143508Y1003300D01*
X1143508Y1245108D01*
G37*
D10*
X4664456Y5003800D02*
G01*
X4102100Y5003800D01*
X4102100Y1155700D01*
X5156200Y1155700D01*
X5156200Y1955800D01*
X5727700Y1955800D01*
X3140456Y5257800D02*
G01*
X3835400Y5257800D01*
X3835400Y876300D01*
X5410200Y876300D01*
X5410200Y1447800D01*
X5727700Y1447800D01*
X3140456Y5003800D02*
G01*
X3543300Y5003800D01*
X3543300Y584200D01*
X5727700Y584200D01*
X5727700Y1054100D01*
X6019800Y1054100D01*
X6019800Y1701800D01*
X5727700Y1701800D01*
X1981200Y2717800D02*
G01*
X1901189Y2717800D01*
X1394205Y2201926D01*
X1308100Y2201163D01*
X1308100Y2701036D02*
G01*
X1389634Y2700528D01*
X1921002Y3225800D01*
X1981200Y3225800D01*
X1981200Y2971800D02*
G01*
X1902205Y2971800D01*
X1387094Y2451607D01*
X1308100Y2451100D01*
X2730525Y5727700D02*
G01*
X5803900Y5740400D01*
X5803900Y5461000D01*
X2730500Y5981700D02*
G01*
X2362200Y5981700D01*
X2362200Y4991100D01*
X1066800Y4991100D01*
X1066800Y2951226D01*
X1308100Y2951226D01*
X2730525Y5473700D02*
G01*
X4664445Y5473700D01*
X4664445Y5257800D01*
X1308100Y4487926D02*
G01*
X1066800Y4487926D01*
X1066800Y2951226D01*
X1308100Y2951226D01*
X3140483Y2463800D02*
G01*
X2743225Y2463800D01*
X3140483Y2717800D02*
G01*
X2743225Y2717800D01*
X3140483Y2971800D02*
G01*
X2743225Y2971800D01*
X3140483Y3225800D02*
G01*
X2743225Y3225800D01*
X3140483Y3479800D02*
G01*
X2743225Y3479800D01*
X3140483Y3733800D02*
G01*
X2743225Y3733800D01*
X2743225Y3987800D02*
G01*
X3140483Y3987800D01*
X2743225Y4241800D02*
G01*
X3140483Y4241800D01*
X2743225Y4495800D02*
G01*
X3140483Y4495800D01*
X1981225Y4495800D02*
G01*
X1316126Y4495800D01*
X1308125Y4487798D01*
X1308125Y4237812D02*
G01*
X1312113Y4241800D01*
X1981225Y4241800D01*
X1981225Y3987800D02*
G01*
X1308125Y3987800D01*
X1981225Y3733800D02*
G01*
X1312113Y3733800D01*
X1308125Y3737787D01*
X1981225Y3479800D02*
G01*
X1316126Y3479800D01*
X1308125Y3487801D01*
X4664458Y5257800D02*
G01*
X4664458Y5473700D01*
X4600958Y5473700D02*
G01*
X5300934Y5473700D01*
X5300934Y5456529D01*
X5397474Y6121400D02*
G01*
X5194274Y6121400D01*
X5295874Y6223000D02*
G01*
X5295874Y6019800D01*
X5702300Y6108674D02*
G01*
X5905500Y6108674D01*
X5791225Y4330725D02*
G01*
X5798677Y4330725D01*
X5798677Y5465216D01*
X5791225Y3797325D02*
G01*
X5791225Y2717800D01*
X4664506Y2717800D01*
X1981200Y2463800D02*
G01*
X1905000Y2463800D01*
X1392173Y1950973D01*
X1308100Y1950973D01*
X4664506Y5003800D02*
G01*
X5791225Y5003800D01*
X5791225Y4330725D01*
X4664456Y4495800D02*
G01*
X4394200Y4495800D01*
X4394200Y1422400D01*
X4902200Y1422400D01*
X4902200Y2209800D01*
X5727700Y2209800D01*
D11*
G01*
X5798718Y5460872D03*
G01*
X5300878Y5460872D03*
D12*
G75*
G01
X5410200Y6121400D02*
G03X5410200Y6121400I-12700J0D01*
G75*
G01
X5207000Y6121400D02*
G03X5207000Y6121400I-12700J0D01*
G75*
G01
X5308600Y6223000D02*
G03X5308600Y6223000I-12700J0D01*
G75*
G01
X5308600Y6019800D02*
G03X5308600Y6019800I-12700J0D01*
G75*
G01
X5918200Y6108700D02*
G03X5918200Y6108700I-12700J0D01*
G75*
G01
X5715000Y6108700D02*
G03X5715000Y6108700I-12700J0D01*
D11*
G01*
X2730525Y5981700D03*
G01*
X2730525Y5727700D03*
G01*
X2730525Y5473700D03*
G01*
X5791225Y4330725D03*
G01*
X5791225Y3797325D03*
G01*
X2743200Y2463800D03*
G01*
X2743200Y2717800D03*
G01*
X2743200Y3987800D03*
G01*
X2743200Y4241800D03*
G01*
X2743200Y2971800D03*
G01*
X2743200Y3225800D03*
G01*
X2743200Y3733800D03*
G01*
X2743200Y3479800D03*
G01*
X2743200Y4495800D03*
G01*
X1981200Y4495800D03*
G01*
X1981200Y4241800D03*
G01*
X1981200Y3987800D03*
G01*
X1981200Y3733800D03*
G01*
X1981200Y3479800D03*
G01*
X1981200Y3225800D03*
G01*
X1981200Y2971800D03*
G01*
X1981200Y2717800D03*
G01*
X1981200Y2463800D03*
G01*
X3140481Y5257800D03*
G01*
X4664506Y5003800D03*
G01*
X4664506Y4495800D03*
G01*
X4664506Y3987800D03*
G01*
X4664506Y3479800D03*
G01*
X4664506Y2971800D03*
G01*
X4664506Y2463800D03*
G01*
X4664506Y1955800D03*
G01*
X3140481Y1701800D03*
G01*
X3140481Y2209800D03*
G01*
X3140481Y2717800D03*
G01*
X3140481Y3225800D03*
G01*
X3140481Y3733800D03*
G01*
X3140481Y4241800D03*
G01*
X3140481Y4749800D03*
G01*
X3140481Y5003800D03*
G01*
X3140481Y4495800D03*
G01*
X3140481Y3987800D03*
G01*
X3140481Y3479800D03*
G01*
X3140481Y2971800D03*
G01*
X3140481Y2463800D03*
G01*
X3140481Y1955800D03*
G01*
X4664506Y1701800D03*
G01*
X4664506Y2209800D03*
G01*
X4664506Y2717800D03*
D13*
G01*
X4664506Y3225800D03*
D11*
G01*
X4664506Y3733800D03*
G01*
X4664506Y4241800D03*
G01*
X4664506Y4749800D03*
G01*
X4664481Y5257800D03*
G01*
X1308125Y1951101D03*
G01*
X1308125Y2201087D03*
G01*
X1308125Y2451100D03*
G01*
X1308125Y2701112D03*
G01*
X1308125Y2951098D03*
G01*
X1308125Y3487801D03*
G01*
X1308125Y3737787D03*
G01*
X1308125Y3987800D03*
G01*
X1308125Y4237812D03*
G01*
X1308125Y4487798D03*
G01*
X5727700Y2209800D03*
G01*
X5727700Y1955800D03*
G01*
X5727700Y1701800D03*
G01*
X5727700Y1447800D03*
G01*
X5308600Y5461000D03*
G01*
X5803900Y5461000D03*
M02*
