G04 Layer: TopSolderMaskLayer*
G04 EasyEDA v6.5.54, 2026-03-30 15:16:27*
G04 7c9e62fdbe6b4c8088fa6ed4ee03eb35,542a0a0b4d2e4e71ab8ac907374f1b5f,10*
G04 Gerber Generator version 0.2*
G04 Scale: 100 percent, Rotated: No, Reflected: No *
G04 Dimensions in millimeters *
G04 leading zeros omitted , absolute positions ,4 integer and 5 decimal *
%FSLAX45Y45*%
%MOMM*%

%ADD10C,1.9016*%
%ADD11C,2.0032*%
%ADD12C,1.7016*%
%ADD13C,1.9000*%
%ADD14C,0.0163*%

%LPD*%
D10*
G01*
X2730525Y5981700D03*
G01*
X2730525Y5727700D03*
G01*
X2730525Y5473700D03*
D11*
G01*
X5791225Y4330725D03*
G01*
X5791225Y3797325D03*
G01*
X2743200Y2463800D03*
G01*
X2743200Y2717800D03*
G01*
X2743200Y3987800D03*
G01*
X2743200Y4241800D03*
G01*
X2743200Y2971800D03*
G01*
X2743200Y3225800D03*
G01*
X2743200Y3733800D03*
G01*
X2743200Y3479800D03*
G01*
X2743200Y4495800D03*
G01*
X1981200Y4495800D03*
G01*
X1981200Y4241800D03*
G01*
X1981200Y3987800D03*
G01*
X1981200Y3733800D03*
G01*
X1981200Y3479800D03*
G01*
X1981200Y3225800D03*
G01*
X1981200Y2971800D03*
G01*
X1981200Y2717800D03*
G01*
X1981200Y2463800D03*
D10*
G01*
X3140481Y5257800D03*
G01*
X4664506Y5003800D03*
G01*
X4664506Y4495800D03*
G01*
X4664506Y3987800D03*
G01*
X4664506Y3479800D03*
G01*
X4664506Y2971800D03*
G01*
X4664506Y2463800D03*
G01*
X4664506Y1955800D03*
G01*
X3140481Y1701800D03*
G01*
X3140481Y2209800D03*
G01*
X3140481Y2717800D03*
G01*
X3140481Y3225800D03*
G01*
X3140481Y3733800D03*
G01*
X3140481Y4241800D03*
G01*
X3140481Y4749800D03*
G01*
X3140481Y5003800D03*
G01*
X3140481Y4495800D03*
G01*
X3140481Y3987800D03*
G01*
X3140481Y3479800D03*
G01*
X3140481Y2971800D03*
G01*
X3140481Y2463800D03*
G01*
X3140481Y1955800D03*
G01*
X4664506Y1701800D03*
G01*
X4664506Y2209800D03*
G01*
X4664506Y2717800D03*
D12*
G01*
X4664506Y3225800D03*
D10*
G01*
X4664506Y3733800D03*
G01*
X4664506Y4241800D03*
G01*
X4664506Y4749800D03*
G01*
X4664481Y5257800D03*
D13*
G01*
X1308125Y1951101D03*
G01*
X1308125Y2201087D03*
G01*
X1308125Y2451100D03*
G01*
X1308125Y2701112D03*
G01*
X1308125Y2951098D03*
G01*
X1308125Y3487801D03*
G01*
X1308125Y3737787D03*
G01*
X1308125Y3987800D03*
G01*
X1308125Y4237812D03*
G01*
X1308125Y4487798D03*
D10*
G01*
X5727700Y2209800D03*
G01*
X5727700Y1955800D03*
G01*
X5727700Y1701800D03*
G01*
X5727700Y1447800D03*
G01*
X5308600Y5461000D03*
G01*
X5803900Y5461000D03*
M02*
